<svg aria-hidden="true" style="position: absolute; width: 0; height: 0; overflow: hidden;" version="1.1" xmlns="http://www.w3.org/2000/svg" xmlns:xlink="http://www.w3.org/1999/xlink">
<defs>
<symbol id="icon-film" viewBox="0 0 32 32">
<path fill="none" stroke="#fff" style="stroke: var(--color1, #fff)" stroke-linejoin="round" stroke-linecap="round" stroke-miterlimit="4" stroke-width="2.1695" d="M26.427 2.667h-20.853c-1.605 0-2.907 1.301-2.907 2.907v20.853c0 1.605 1.301 2.907 2.907 2.907h20.853c1.605 0 2.907-1.301 2.907-2.907v-20.853c0-1.605-1.301-2.907-2.907-2.907z"></path>
<path fill="none" stroke="#fff" style="stroke: var(--color1, #fff)" stroke-linejoin="round" stroke-linecap="round" stroke-miterlimit="4" stroke-width="2.1695" d="M9.333 2.667v26.667"></path>
<path fill="none" stroke="#fff" style="stroke: var(--color1, #fff)" stroke-linejoin="round" stroke-linecap="round" stroke-miterlimit="4" stroke-width="2.1695" d="M22.667 2.667v26.667"></path>
<path fill="none" stroke="#fff" style="stroke: var(--color1, #fff)" stroke-linejoin="round" stroke-linecap="round" stroke-miterlimit="4" stroke-width="2.1695" d="M2.667 16h26.667"></path>
<path fill="none" stroke="#fff" style="stroke: var(--color1, #fff)" stroke-linejoin="round" stroke-linecap="round" stroke-miterlimit="4" stroke-width="2.1695" d="M2.667 9.333h6.667"></path>
<path fill="none" stroke="#fff" style="stroke: var(--color1, #fff)" stroke-linejoin="round" stroke-linecap="round" stroke-miterlimit="4" stroke-width="2.1695" d="M2.667 22.667h6.667"></path>
<path fill="none" stroke="#fff" style="stroke: var(--color1, #fff)" stroke-linejoin="round" stroke-linecap="round" stroke-miterlimit="4" stroke-width="2.1695" d="M22.667 22.667h6.667"></path>
<path fill="none" stroke="#fff" style="stroke: var(--color1, #fff)" stroke-linejoin="round" stroke-linecap="round" stroke-miterlimit="4" stroke-width="2.1695" d="M22.667 9.333h6.667"></path>
</symbol>
<symbol id="icon-camera" viewBox="0 0 29 32">
<path d="M3.844 12.471h-0c-1.37 0.003-2.48 1.112-2.484 2.482v9.266c0.009 1.366 1.117 2.471 2.484 2.476h3.32l-3.286 5.305h3.125l3.646-4.846 3.604 4.854h3.081l-3.307-5.305h4.553c1.369-0.006 2.478-1.115 2.484-2.484v-9.266c-0.004-1.369-1.114-2.478-2.484-2.481h-14.734zM3.906 2.576v0c-2.157 0-3.906 1.749-3.906 3.906v0c0 2.157 1.749 3.906 3.906 3.906s3.906-1.749 3.906-3.906c0-2.157-1.749-3.906-3.906-3.906zM1.372 6.492c0.003-0.436 0.357-0.789 0.794-0.789 0.439 0 0.794 0.356 0.794 0.794s-0.356 0.794-0.794 0.794v0c-0.004 0-0.009 0-0.013 0-0.431 0-0.781-0.35-0.781-0.781 0-0.005 0-0.009 0-0.014v0.001zM3.927 9.008c-0.005 0-0.010 0-0.016 0-0.44 0-0.797-0.357-0.797-0.797s0.357-0.797 0.797-0.797c0.44 0 0.797 0.357 0.797 0.797v0c0 0.001 0 0.002 0 0.003 0 0.434-0.348 0.787-0.781 0.794h-0.001zM6.443 6.451c0 0.001 0 0.002 0 0.002 0 0.44-0.357 0.797-0.797 0.797s-0.797-0.357-0.797-0.797c0-0.44 0.357-0.797 0.797-0.797 0.005 0 0.011 0 0.016 0h-0.001c0.432 0.009 0.78 0.361 0.781 0.794v0zM3.885 3.935c0.001 0 0.002 0 0.003 0 0.44 0 0.797 0.357 0.797 0.797s-0.357 0.797-0.797 0.797c-0.44 0-0.797-0.357-0.797-0.797v0c0 0 0 0 0 0 0-0.439 0.355-0.795 0.794-0.797h0zM15.901 0h0c-0.001 0-0.002 0-0.003 0-2.859 0-5.177 2.318-5.177 5.177 0 0.001 0 0.002 0 0.003v0c0 2.861 2.319 5.18 5.18 5.18s5.18-2.319 5.18-5.18c0-2.861-2.319-5.18-5.18-5.18zM15.87 1.51c0.639 0 1.156 0.518 1.156 1.156s-0.518 1.156-1.156 1.156c-0.639 0-1.156-0.518-1.156-1.156v0c0-0.639 0.518-1.156 1.156-1.156v0zM12.208 5.229c0-0.001 0-0.002 0-0.003 0-0.64 0.519-1.159 1.159-1.159s1.159 0.519 1.159 1.159c0 0.64-0.519 1.159-1.159 1.159-0.001 0-0.002 0-0.003 0h0c-0.639 0-1.156-0.518-1.156-1.156v0zM15.93 8.891c-0.639 0-1.156-0.518-1.156-1.156s0.518-1.156 1.156-1.156c0.639 0 1.156 0.518 1.156 1.156v0c0 0.639-0.518 1.156-1.156 1.156v0zM19.576 5.172c-0.001 0.637-0.519 1.154-1.156 1.154s-1.156-0.518-1.156-1.156 0.518-1.156 1.156-1.156v0c0 0 0 0 0 0 0.639 0 1.156 0.518 1.156 1.156 0 0.001 0 0.002 0 0.003v-0zM22.474 23.698v-7.974l6.734-3.969v16.018l-6.734-4.076z"></path>
</symbol>
</defs>
</svg>
